# xmcd CD database file
#
# Track frame offsets:
#	150
#	9656
#	27831
#	42195
#	59890
#	74220
#
# Disc length: 1301 seconds
#
# Revision: 0
# Processed by: cddbd v1.5PL3 Copyright (c) Steve Scherf et al.
# Submitted via: CDex 1.50
#
DISCID=57051306
DTITLE=Heavy Sax Quartet Fingers - Mirage
DYEAR=2000
DGENRE=Jazz
TTITLE0=Fingers Blues
TTITLE1="Min" de rien
TTITLE2=Fais pas très beau
TTITLE3=Mirage
TTITLE4=Mandragore
TTITLE5=Rue lanterne
EXTD=YEAR: 2000
EXTT0=
EXTT1=
EXTT2=
EXTT3=
EXTT4=
EXTT5=
PLAYORDER=
